solid OpenSCAD_Model
  facet normal -1 0 0
    outer loop
      vertex 145 33.8 20
      vertex 145 15.8 25
      vertex 145 33.8 25
    endloop
  endfacet
  facet normal -1 0 0
    outer loop
      vertex 145 0 20
      vertex 145 15.8 25
      vertex 145 33.8 20
    endloop
  endfacet
  facet normal -1 0 0
    outer loop
      vertex 145 0 29
      vertex 145 15.8 25
      vertex 145 0 20
    endloop
  endfacet
  facet normal -1 0 0
    outer loop
      vertex 145 15.8 25
      vertex 145 0 29
      vertex 145 15.8 29
    endloop
  endfacet
  facet normal 0 0 1
    outer loop
      vertex 187.5 15.8 29
      vertex 184.505 13.79 29
      vertex 187.5 0 29
    endloop
  endfacet
  facet normal 0 0 1
    outer loop
      vertex 187.5 15.8 29
      vertex 147.995 13.79 29
      vertex 184.505 13.79 29
    endloop
  endfacet
  facet normal -0 0 1
    outer loop
      vertex 145 15.8 29
      vertex 147.995 13.79 29
      vertex 187.5 15.8 29
    endloop
  endfacet
  facet normal 0 0 1
    outer loop
      vertex 145 0 29
      vertex 147.995 13.79 29
      vertex 145 15.8 29
    endloop
  endfacet
  facet normal 0 0 1
    outer loop
      vertex 147.995 13.79 29
      vertex 145 0 29
      vertex 147.995 0 29
    endloop
  endfacet
  facet normal 0 0 1
    outer loop
      vertex 187.5 0 29
      vertex 184.505 13.79 29
      vertex 184.505 0 29
    endloop
  endfacet
  facet normal 1 -0 0
    outer loop
      vertex 187.5 0 29
      vertex 187.5 15.8 20
      vertex 187.5 15.8 29
    endloop
  endfacet
  facet normal 1 0 0
    outer loop
      vertex 187.5 15.8 20
      vertex 187.5 0 29
      vertex 187.5 0 20
    endloop
  endfacet
  facet normal 0 1 0
    outer loop
      vertex 187.5 15.8 29
      vertex 165 15.8 25
      vertex 145 15.8 29
    endloop
  endfacet
  facet normal 0 1 -0
    outer loop
      vertex 187.5 15.8 20
      vertex 165 15.8 25
      vertex 187.5 15.8 29
    endloop
  endfacet
  facet normal 0 1 0
    outer loop
      vertex 165 15.8 25
      vertex 187.5 15.8 20
      vertex 165 15.8 20
    endloop
  endfacet
  facet normal 0 1 0
    outer loop
      vertex 145 15.8 29
      vertex 165 15.8 25
      vertex 145 15.8 25
    endloop
  endfacet
  facet normal 0 0 -1
    outer loop
      vertex 187.5 0 20
      vertex 165 15.8 20
      vertex 187.5 15.8 20
    endloop
  endfacet
  facet normal 0 0 -1
    outer loop
      vertex 165 15.8 20
      vertex 156.7 23.8 20
      vertex 165 33.8 20
    endloop
  endfacet
  facet normal 0 0 -1
    outer loop
      vertex 165 15.8 20
      vertex 156.631 23.3211 20
      vertex 156.7 23.8 20
    endloop
  endfacet
  facet normal 0 0 -1
    outer loop
      vertex 165 15.8 20
      vertex 156.43 22.8809 20
      vertex 156.631 23.3211 20
    endloop
  endfacet
  facet normal 0 0 -1
    outer loop
      vertex 165 15.8 20
      vertex 156.113 22.5152 20
      vertex 156.43 22.8809 20
    endloop
  endfacet
  facet normal 0 0 -1
    outer loop
      vertex 165 15.8 20
      vertex 155.706 22.2536 20
      vertex 156.113 22.5152 20
    endloop
  endfacet
  facet normal 0 0 -1
    outer loop
      vertex 145 0 20
      vertex 165 15.8 20
      vertex 187.5 0 20
    endloop
  endfacet
  facet normal 0 -0 -1
    outer loop
      vertex 154.758 22.1173 20
      vertex 165 15.8 20
      vertex 145 0 20
    endloop
  endfacet
  facet normal 0 0 -1
    outer loop
      vertex 165 15.8 20
      vertex 155.242 22.1173 20
      vertex 155.706 22.2536 20
    endloop
  endfacet
  facet normal 0 0 -1
    outer loop
      vertex 165 15.8 20
      vertex 154.758 22.1173 20
      vertex 155.242 22.1173 20
    endloop
  endfacet
  facet normal -0 0 -1
    outer loop
      vertex 154.758 22.1173 20
      vertex 145 0 20
      vertex 154.294 22.2536 20
    endloop
  endfacet
  facet normal 0 0 -1
    outer loop
      vertex 145 33.8 20
      vertex 153.369 23.3211 20
      vertex 145 0 20
    endloop
  endfacet
  facet normal -0 0 -1
    outer loop
      vertex 153.57 22.8809 20
      vertex 145 0 20
      vertex 153.369 23.3211 20
    endloop
  endfacet
  facet normal -0 0 -1
    outer loop
      vertex 153.887 22.5152 20
      vertex 145 0 20
      vertex 153.57 22.8809 20
    endloop
  endfacet
  facet normal -0 0 -1
    outer loop
      vertex 154.294 22.2536 20
      vertex 145 0 20
      vertex 153.887 22.5152 20
    endloop
  endfacet
  facet normal 0 0 -1
    outer loop
      vertex 156.631 24.2789 20
      vertex 165 33.8 20
      vertex 156.7 23.8 20
    endloop
  endfacet
  facet normal 0 0 -1
    outer loop
      vertex 156.43 24.7191 20
      vertex 165 33.8 20
      vertex 156.631 24.2789 20
    endloop
  endfacet
  facet normal 0 0 -1
    outer loop
      vertex 156.113 25.0848 20
      vertex 165 33.8 20
      vertex 156.43 24.7191 20
    endloop
  endfacet
  facet normal 0 0 -1
    outer loop
      vertex 155.706 25.3464 20
      vertex 165 33.8 20
      vertex 156.113 25.0848 20
    endloop
  endfacet
  facet normal 0 0 -1
    outer loop
      vertex 155.242 25.4827 20
      vertex 165 33.8 20
      vertex 155.706 25.3464 20
    endloop
  endfacet
  facet normal 0 0 -1
    outer loop
      vertex 154.758 25.4827 20
      vertex 165 33.8 20
      vertex 155.242 25.4827 20
    endloop
  endfacet
  facet normal 0 0 -1
    outer loop
      vertex 145 33.8 20
      vertex 154.758 25.4827 20
      vertex 154.294 25.3464 20
    endloop
  endfacet
  facet normal 0 0 -1
    outer loop
      vertex 145 33.8 20
      vertex 154.294 25.3464 20
      vertex 153.887 25.0848 20
    endloop
  endfacet
  facet normal 0 0 -1
    outer loop
      vertex 153.369 23.3211 20
      vertex 145 33.8 20
      vertex 153.3 23.8 20
    endloop
  endfacet
  facet normal 0 0 -1
    outer loop
      vertex 154.758 25.4827 20
      vertex 145 33.8 20
      vertex 165 33.8 20
    endloop
  endfacet
  facet normal 0 0 -1
    outer loop
      vertex 153.57 24.7191 20
      vertex 145 33.8 20
      vertex 153.887 25.0848 20
    endloop
  endfacet
  facet normal 0 0 -1
    outer loop
      vertex 153.369 24.2789 20
      vertex 145 33.8 20
      vertex 153.57 24.7191 20
    endloop
  endfacet
  facet normal 0 0 -1
    outer loop
      vertex 153.3 23.8 20
      vertex 145 33.8 20
      vertex 153.369 24.2789 20
    endloop
  endfacet
  facet normal 0 -1 0
    outer loop
      vertex 145 0 29
      vertex 147 0 27
      vertex 147.995 0 29
    endloop
  endfacet
  facet normal 0 -1 0
    outer loop
      vertex 145 0 29
      vertex 147 0 22
      vertex 147 0 27
    endloop
  endfacet
  facet normal 0 -1 -0
    outer loop
      vertex 147 0 22
      vertex 145 0 20
      vertex 185.5 0 22
    endloop
  endfacet
  facet normal 0 -1 0
    outer loop
      vertex 145 0 20
      vertex 147 0 22
      vertex 145 0 29
    endloop
  endfacet
  facet normal 0 -1 0
    outer loop
      vertex 185.5 0 27
      vertex 187.5 0 29
      vertex 184.505 0 29
    endloop
  endfacet
  facet normal 0 -1 0
    outer loop
      vertex 185.5 0 22
      vertex 187.5 0 29
      vertex 185.5 0 27
    endloop
  endfacet
  facet normal 0 -1 0
    outer loop
      vertex 185.5 0 22
      vertex 187.5 0 20
      vertex 187.5 0 29
    endloop
  endfacet
  facet normal 0 -1 0
    outer loop
      vertex 187.5 0 20
      vertex 185.5 0 22
      vertex 145 0 20
    endloop
  endfacet
  facet normal -0.895321 0 -0.445422
    outer loop
      vertex 185.5 0 27
      vertex 184.505 13.79 29
      vertex 185.5 13.79 27
    endloop
  endfacet
  facet normal -0.895321 -0 -0.445422
    outer loop
      vertex 184.505 13.79 29
      vertex 185.5 0 27
      vertex 184.505 0 29
    endloop
  endfacet
  facet normal 1 -0 0
    outer loop
      vertex 147 0 27
      vertex 147 13.79 22
      vertex 147 13.79 27
    endloop
  endfacet
  facet normal 1 0 0
    outer loop
      vertex 147 13.79 22
      vertex 147 0 27
      vertex 147 0 22
    endloop
  endfacet
  facet normal 0 -1 0
    outer loop
      vertex 147 13.79 22
      vertex 147.995 13.79 29
      vertex 147 13.79 27
    endloop
  endfacet
  facet normal 0 -1 -0
    outer loop
      vertex 147.995 13.79 29
      vertex 147 13.79 22
      vertex 184.505 13.79 29
    endloop
  endfacet
  facet normal 0 -1 0
    outer loop
      vertex 185.5 13.79 22
      vertex 184.505 13.79 29
      vertex 147 13.79 22
    endloop
  endfacet
  facet normal 0 -1 0
    outer loop
      vertex 184.505 13.79 29
      vertex 185.5 13.79 22
      vertex 185.5 13.79 27
    endloop
  endfacet
  facet normal 0.895321 0 -0.445422
    outer loop
      vertex 147.995 0 29
      vertex 147 13.79 27
      vertex 147.995 13.79 29
    endloop
  endfacet
  facet normal 0.895321 0 -0.445422
    outer loop
      vertex 147 13.79 27
      vertex 147.995 0 29
      vertex 147 0 27
    endloop
  endfacet
  facet normal -0 0 1
    outer loop
      vertex 147 13.79 22
      vertex 185.5 0 22
      vertex 185.5 13.79 22
    endloop
  endfacet
  facet normal 0 0 1
    outer loop
      vertex 185.5 0 22
      vertex 147 13.79 22
      vertex 147 0 22
    endloop
  endfacet
  facet normal -1 0 0
    outer loop
      vertex 185.5 0 22
      vertex 185.5 13.79 27
      vertex 185.5 13.79 22
    endloop
  endfacet
  facet normal -1 -0 0
    outer loop
      vertex 185.5 13.79 27
      vertex 185.5 0 22
      vertex 185.5 0 27
    endloop
  endfacet
  facet normal -0.989779 -0.142608 0
    outer loop
      vertex 156.7 23.8 20
      vertex 156.631 24.2789 22
      vertex 156.631 24.2789 20
    endloop
  endfacet
  facet normal -0.989779 -0.142608 0
    outer loop
      vertex 156.631 24.2789 22
      vertex 156.7 23.8 20
      vertex 156.7 23.8 22
    endloop
  endfacet
  facet normal 0.989779 -0.142608 0
    outer loop
      vertex 153.3 23.8 22
      vertex 153.369 24.2789 20
      vertex 153.369 24.2789 22
    endloop
  endfacet
  facet normal 0.989779 -0.142608 0
    outer loop
      vertex 153.369 24.2789 20
      vertex 153.3 23.8 22
      vertex 153.3 23.8 20
    endloop
  endfacet
  facet normal 0 -1 0
    outer loop
      vertex 154.758 25.4827 20
      vertex 155.242 25.4827 22
      vertex 154.758 25.4827 22
    endloop
  endfacet
  facet normal 0 -1 -0
    outer loop
      vertex 155.242 25.4827 22
      vertex 154.758 25.4827 20
      vertex 155.242 25.4827 20
    endloop
  endfacet
  facet normal 0 1 -0
    outer loop
      vertex 155.242 22.1173 20
      vertex 154.758 22.1173 22
      vertex 155.242 22.1173 22
    endloop
  endfacet
  facet normal 0 1 0
    outer loop
      vertex 154.758 22.1173 22
      vertex 155.242 22.1173 20
      vertex 154.758 22.1173 20
    endloop
  endfacet
  facet normal -0.281842 0.959461 0
    outer loop
      vertex 155.706 22.2536 20
      vertex 155.242 22.1173 22
      vertex 155.706 22.2536 22
    endloop
  endfacet
  facet normal -0.281842 0.959461 0
    outer loop
      vertex 155.242 22.1173 22
      vertex 155.706 22.2536 20
      vertex 155.242 22.1173 20
    endloop
  endfacet
  facet normal -0.540695 -0.841219 0
    outer loop
      vertex 155.706 25.3464 20
      vertex 156.113 25.0848 22
      vertex 155.706 25.3464 22
    endloop
  endfacet
  facet normal -0.540695 -0.841219 -0
    outer loop
      vertex 156.113 25.0848 22
      vertex 155.706 25.3464 20
      vertex 156.113 25.0848 20
    endloop
  endfacet
  facet normal -0.909657 -0.415359 0
    outer loop
      vertex 156.631 24.2789 20
      vertex 156.43 24.7191 22
      vertex 156.43 24.7191 20
    endloop
  endfacet
  facet normal -0.909657 -0.415359 0
    outer loop
      vertex 156.43 24.7191 22
      vertex 156.631 24.2789 20
      vertex 156.631 24.2789 22
    endloop
  endfacet
  facet normal -0.281842 -0.959461 0
    outer loop
      vertex 155.242 25.4827 20
      vertex 155.706 25.3464 22
      vertex 155.242 25.4827 22
    endloop
  endfacet
  facet normal -0.281842 -0.959461 -0
    outer loop
      vertex 155.706 25.3464 22
      vertex 155.242 25.4827 20
      vertex 155.706 25.3464 20
    endloop
  endfacet
  facet normal 0.755628 -0.655001 0
    outer loop
      vertex 153.57 24.7191 22
      vertex 153.887 25.0848 20
      vertex 153.887 25.0848 22
    endloop
  endfacet
  facet normal 0.755628 -0.655001 0
    outer loop
      vertex 153.887 25.0848 20
      vertex 153.57 24.7191 22
      vertex 153.57 24.7191 20
    endloop
  endfacet
  facet normal 0.909657 -0.415359 0
    outer loop
      vertex 153.369 24.2789 22
      vertex 153.57 24.7191 20
      vertex 153.57 24.7191 22
    endloop
  endfacet
  facet normal 0.909657 -0.415359 0
    outer loop
      vertex 153.57 24.7191 20
      vertex 153.369 24.2789 22
      vertex 153.369 24.2789 20
    endloop
  endfacet
  facet normal 0.281842 -0.959461 0
    outer loop
      vertex 154.294 25.3464 20
      vertex 154.758 25.4827 22
      vertex 154.294 25.3464 22
    endloop
  endfacet
  facet normal 0.281842 -0.959461 0
    outer loop
      vertex 154.758 25.4827 22
      vertex 154.294 25.3464 20
      vertex 154.758 25.4827 20
    endloop
  endfacet
  facet normal 0.755628 0.655001 0
    outer loop
      vertex 153.887 22.5152 22
      vertex 153.57 22.8809 20
      vertex 153.57 22.8809 22
    endloop
  endfacet
  facet normal 0.755628 0.655001 0
    outer loop
      vertex 153.57 22.8809 20
      vertex 153.887 22.5152 22
      vertex 153.887 22.5152 20
    endloop
  endfacet
  facet normal -0.755628 -0.655001 0
    outer loop
      vertex 156.43 24.7191 20
      vertex 156.113 25.0848 22
      vertex 156.113 25.0848 20
    endloop
  endfacet
  facet normal -0.755628 -0.655001 0
    outer loop
      vertex 156.113 25.0848 22
      vertex 156.43 24.7191 20
      vertex 156.43 24.7191 22
    endloop
  endfacet
  facet normal 0.540695 -0.841219 0
    outer loop
      vertex 153.887 25.0848 20
      vertex 154.294 25.3464 22
      vertex 153.887 25.0848 22
    endloop
  endfacet
  facet normal 0.540695 -0.841219 0
    outer loop
      vertex 154.294 25.3464 22
      vertex 153.887 25.0848 20
      vertex 154.294 25.3464 20
    endloop
  endfacet
  facet normal -0.989779 0.142608 0
    outer loop
      vertex 156.631 23.3211 20
      vertex 156.7 23.8 22
      vertex 156.7 23.8 20
    endloop
  endfacet
  facet normal -0.989779 0.142608 0
    outer loop
      vertex 156.7 23.8 22
      vertex 156.631 23.3211 20
      vertex 156.631 23.3211 22
    endloop
  endfacet
  facet normal -0.909657 0.415359 0
    outer loop
      vertex 156.43 22.8809 20
      vertex 156.631 23.3211 22
      vertex 156.631 23.3211 20
    endloop
  endfacet
  facet normal -0.909657 0.415359 0
    outer loop
      vertex 156.631 23.3211 22
      vertex 156.43 22.8809 20
      vertex 156.43 22.8809 22
    endloop
  endfacet
  facet normal -0.540695 0.841219 0
    outer loop
      vertex 156.113 22.5152 20
      vertex 155.706 22.2536 22
      vertex 156.113 22.5152 22
    endloop
  endfacet
  facet normal -0.540695 0.841219 0
    outer loop
      vertex 155.706 22.2536 22
      vertex 156.113 22.5152 20
      vertex 155.706 22.2536 20
    endloop
  endfacet
  facet normal 0.281842 0.959461 -0
    outer loop
      vertex 154.758 22.1173 20
      vertex 154.294 22.2536 22
      vertex 154.758 22.1173 22
    endloop
  endfacet
  facet normal 0.281842 0.959461 0
    outer loop
      vertex 154.294 22.2536 22
      vertex 154.758 22.1173 20
      vertex 154.294 22.2536 20
    endloop
  endfacet
  facet normal 0.909657 0.415359 0
    outer loop
      vertex 153.57 22.8809 22
      vertex 153.369 23.3211 20
      vertex 153.369 23.3211 22
    endloop
  endfacet
  facet normal 0.909657 0.415359 0
    outer loop
      vertex 153.369 23.3211 20
      vertex 153.57 22.8809 22
      vertex 153.57 22.8809 20
    endloop
  endfacet
  facet normal 0.989779 0.142608 0
    outer loop
      vertex 153.369 23.3211 22
      vertex 153.3 23.8 20
      vertex 153.3 23.8 22
    endloop
  endfacet
  facet normal 0.989779 0.142608 0
    outer loop
      vertex 153.3 23.8 20
      vertex 153.369 23.3211 22
      vertex 153.369 23.3211 20
    endloop
  endfacet
  facet normal -0.755628 0.655001 0
    outer loop
      vertex 156.113 22.5152 20
      vertex 156.43 22.8809 22
      vertex 156.43 22.8809 20
    endloop
  endfacet
  facet normal -0.755628 0.655001 0
    outer loop
      vertex 156.43 22.8809 22
      vertex 156.113 22.5152 20
      vertex 156.113 22.5152 22
    endloop
  endfacet
  facet normal 0.540695 0.841219 -0
    outer loop
      vertex 154.294 22.2536 20
      vertex 153.887 22.5152 22
      vertex 154.294 22.2536 22
    endloop
  endfacet
  facet normal 0.540695 0.841219 0
    outer loop
      vertex 153.887 22.5152 22
      vertex 154.294 22.2536 20
      vertex 153.887 22.5152 20
    endloop
  endfacet
  facet normal -0.599103 -0.800672 0
    outer loop
      vertex 156.892 26.7444 22
      vertex 157.292 26.4451 25
      vertex 156.892 26.7444 25
    endloop
  endfacet
  facet normal -0.599103 -0.800672 -0
    outer loop
      vertex 157.292 26.4451 25
      vertex 156.892 26.7444 22
      vertex 157.292 26.4451 22
    endloop
  endfacet
  facet normal 0.349368 0.936986 -0
    outer loop
      vertex 154.014 20.4418 22
      vertex 153.546 20.6163 25
      vertex 154.014 20.4418 25
    endloop
  endfacet
  facet normal 0.349368 0.936986 0
    outer loop
      vertex 153.546 20.6163 25
      vertex 154.014 20.4418 22
      vertex 153.546 20.6163 22
    endloop
  endfacet
  facet normal 0.212646 -0.977129 0
    outer loop
      vertex 154.014 27.1582 22
      vertex 154.502 27.2644 25
      vertex 154.014 27.1582 25
    endloop
  endfacet
  facet normal 0.212646 -0.977129 0
    outer loop
      vertex 154.502 27.2644 25
      vertex 154.014 27.1582 22
      vertex 154.502 27.2644 22
    endloop
  endfacet
  facet normal 0.877068 -0.480366 0
    outer loop
      vertex 151.816 25.254 25
      vertex 152.056 25.6922 22
      vertex 152.056 25.6922 25
    endloop
  endfacet
  facet normal 0.877068 -0.480366 0
    outer loop
      vertex 152.056 25.6922 22
      vertex 151.816 25.254 25
      vertex 151.816 25.254 22
    endloop
  endfacet
  facet normal 0.479456 0.877566 -0
    outer loop
      vertex 153.546 20.6163 22
      vertex 153.108 20.8556 25
      vertex 153.546 20.6163 25
    endloop
  endfacet
  facet normal 0.479456 0.877566 0
    outer loop
      vertex 153.108 20.8556 25
      vertex 153.546 20.6163 22
      vertex 153.108 20.8556 22
    endloop
  endfacet
  facet normal -0.877068 -0.480366 0
    outer loop
      vertex 158.184 25.254 22
      vertex 157.944 25.6922 25
      vertex 157.944 25.6922 22
    endloop
  endfacet
  facet normal -0.877068 -0.480366 0
    outer loop
      vertex 157.944 25.6922 25
      vertex 158.184 25.254 22
      vertex 158.184 25.254 25
    endloop
  endfacet
  facet normal -0.977212 -0.212263 0
    outer loop
      vertex 158.464 24.2981 22
      vertex 158.358 24.7861 25
      vertex 158.358 24.7861 22
    endloop
  endfacet
  facet normal -0.977212 -0.212263 0
    outer loop
      vertex 158.358 24.7861 25
      vertex 158.464 24.2981 22
      vertex 158.464 24.2981 25
    endloop
  endfacet
  facet normal -0.800816 -0.59891 0
    outer loop
      vertex 157.944 25.6922 22
      vertex 157.645 26.092 25
      vertex 157.645 26.092 22
    endloop
  endfacet
  facet normal -0.800816 -0.59891 0
    outer loop
      vertex 157.645 26.092 25
      vertex 157.944 25.6922 22
      vertex 157.944 25.6922 25
    endloop
  endfacet
  facet normal -0.707207 -0.707007 0
    outer loop
      vertex 157.292 26.4451 22
      vertex 157.645 26.092 25
      vertex 157.292 26.4451 25
    endloop
  endfacet
  facet normal -0.707207 -0.707007 -0
    outer loop
      vertex 157.645 26.092 25
      vertex 157.292 26.4451 22
      vertex 157.645 26.092 22
    endloop
  endfacet
  facet normal -0.349368 -0.936986 0
    outer loop
      vertex 155.986 27.1582 22
      vertex 156.454 26.9837 25
      vertex 155.986 27.1582 25
    endloop
  endfacet
  facet normal -0.349368 -0.936986 -0
    outer loop
      vertex 156.454 26.9837 25
      vertex 155.986 27.1582 22
      vertex 156.454 26.9837 22
    endloop
  endfacet
  facet normal -0.071304 -0.997455 0
    outer loop
      vertex 155 27.3 22
      vertex 155.498 27.2644 25
      vertex 155 27.3 25
    endloop
  endfacet
  facet normal -0.071304 -0.997455 -0
    outer loop
      vertex 155.498 27.2644 25
      vertex 155 27.3 22
      vertex 155.498 27.2644 22
    endloop
  endfacet
  facet normal 0.977212 -0.212263 0
    outer loop
      vertex 151.536 24.2981 25
      vertex 151.642 24.7861 22
      vertex 151.642 24.7861 25
    endloop
  endfacet
  facet normal 0.977212 -0.212263 0
    outer loop
      vertex 151.642 24.7861 22
      vertex 151.536 24.2981 25
      vertex 151.536 24.2981 22
    endloop
  endfacet
  facet normal 0.707207 -0.707007 0
    outer loop
      vertex 152.355 26.092 22
      vertex 152.708 26.4451 25
      vertex 152.355 26.092 25
    endloop
  endfacet
  facet normal 0.707207 -0.707007 0
    outer loop
      vertex 152.708 26.4451 25
      vertex 152.355 26.092 22
      vertex 152.708 26.4451 22
    endloop
  endfacet
  facet normal 0.349368 -0.936986 0
    outer loop
      vertex 153.546 26.9837 22
      vertex 154.014 27.1582 25
      vertex 153.546 26.9837 25
    endloop
  endfacet
  facet normal 0.349368 -0.936986 0
    outer loop
      vertex 154.014 27.1582 25
      vertex 153.546 26.9837 22
      vertex 154.014 27.1582 22
    endloop
  endfacet
  facet normal 0.071304 -0.997455 0
    outer loop
      vertex 154.502 27.2644 22
      vertex 155 27.3 25
      vertex 154.502 27.2644 25
    endloop
  endfacet
  facet normal 0.071304 -0.997455 0
    outer loop
      vertex 155 27.3 25
      vertex 154.502 27.2644 22
      vertex 155 27.3 22
    endloop
  endfacet
  facet normal -0.997398 -0.0720866 0
    outer loop
      vertex 158.5 23.8 22
      vertex 158.464 24.2981 25
      vertex 158.464 24.2981 22
    endloop
  endfacet
  facet normal -0.997398 -0.0720866 0
    outer loop
      vertex 158.464 24.2981 25
      vertex 158.5 23.8 22
      vertex 158.5 23.8 25
    endloop
  endfacet
  facet normal -0.349368 0.936986 0
    outer loop
      vertex 156.454 20.6163 22
      vertex 155.986 20.4418 25
      vertex 156.454 20.6163 25
    endloop
  endfacet
  facet normal -0.349368 0.936986 0
    outer loop
      vertex 155.986 20.4418 25
      vertex 156.454 20.6163 22
      vertex 155.986 20.4418 22
    endloop
  endfacet
  facet normal -0.800816 0.59891 0
    outer loop
      vertex 157.645 21.508 22
      vertex 157.944 21.9078 25
      vertex 157.944 21.9078 22
    endloop
  endfacet
  facet normal -0.800816 0.59891 0
    outer loop
      vertex 157.944 21.9078 25
      vertex 157.645 21.508 22
      vertex 157.645 21.508 25
    endloop
  endfacet
  facet normal 0.212646 0.977129 -0
    outer loop
      vertex 154.502 20.3356 22
      vertex 154.014 20.4418 25
      vertex 154.502 20.3356 25
    endloop
  endfacet
  facet normal 0.212646 0.977129 0
    outer loop
      vertex 154.014 20.4418 25
      vertex 154.502 20.3356 22
      vertex 154.014 20.4418 22
    endloop
  endfacet
  facet normal 0.707207 0.707007 -0
    outer loop
      vertex 152.708 21.1549 22
      vertex 152.355 21.508 25
      vertex 152.708 21.1549 25
    endloop
  endfacet
  facet normal 0.707207 0.707007 0
    outer loop
      vertex 152.355 21.508 25
      vertex 152.708 21.1549 22
      vertex 152.355 21.508 22
    endloop
  endfacet
  facet normal 0.937289 0.348554 0
    outer loop
      vertex 151.816 22.346 25
      vertex 151.642 22.8139 22
      vertex 151.642 22.8139 25
    endloop
  endfacet
  facet normal 0.937289 0.348554 0
    outer loop
      vertex 151.642 22.8139 22
      vertex 151.816 22.346 25
      vertex 151.816 22.346 22
    endloop
  endfacet
  facet normal 0.997398 0.0720866 0
    outer loop
      vertex 151.536 23.3019 25
      vertex 151.5 23.8 22
      vertex 151.5 23.8 25
    endloop
  endfacet
  facet normal 0.997398 0.0720866 0
    outer loop
      vertex 151.5 23.8 22
      vertex 151.536 23.3019 25
      vertex 151.536 23.3019 22
    endloop
  endfacet
  facet normal 0 0 1
    outer loop
      vertex 156.7 23.8 22
      vertex 158.5 23.8 22
      vertex 158.464 24.2981 22
    endloop
  endfacet
  facet normal 0 0 1
    outer loop
      vertex 156.631 24.2789 22
      vertex 158.464 24.2981 22
      vertex 158.358 24.7861 22
    endloop
  endfacet
  facet normal 0 0 1
    outer loop
      vertex 158.5 23.8 22
      vertex 156.7 23.8 22
      vertex 158.464 23.3019 22
    endloop
  endfacet
  facet normal 0 0 1
    outer loop
      vertex 156.631 24.2789 22
      vertex 158.358 24.7861 22
      vertex 158.184 25.254 22
    endloop
  endfacet
  facet normal -0 0 1
    outer loop
      vertex 156.631 23.3211 22
      vertex 158.464 23.3019 22
      vertex 156.7 23.8 22
    endloop
  endfacet
  facet normal 0 0 1
    outer loop
      vertex 156.43 24.7191 22
      vertex 158.184 25.254 22
      vertex 157.944 25.6922 22
    endloop
  endfacet
  facet normal 0 0 1
    outer loop
      vertex 158.464 23.3019 22
      vertex 156.631 23.3211 22
      vertex 158.358 22.8139 22
    endloop
  endfacet
  facet normal 0 0 1
    outer loop
      vertex 156.43 24.7191 22
      vertex 157.944 25.6922 22
      vertex 157.645 26.092 22
    endloop
  endfacet
  facet normal 0 0 1
    outer loop
      vertex 158.358 22.8139 22
      vertex 156.631 23.3211 22
      vertex 158.184 22.346 22
    endloop
  endfacet
  facet normal 0 0 1
    outer loop
      vertex 156.113 25.0848 22
      vertex 157.645 26.092 22
      vertex 157.292 26.4451 22
    endloop
  endfacet
  facet normal -0 0 1
    outer loop
      vertex 156.43 22.8809 22
      vertex 158.184 22.346 22
      vertex 156.631 23.3211 22
    endloop
  endfacet
  facet normal 0 0 1
    outer loop
      vertex 156.113 25.0848 22
      vertex 157.292 26.4451 22
      vertex 156.892 26.7444 22
    endloop
  endfacet
  facet normal 0 0 1
    outer loop
      vertex 158.184 22.346 22
      vertex 156.43 22.8809 22
      vertex 157.944 21.9078 22
    endloop
  endfacet
  facet normal 0 0 1
    outer loop
      vertex 157.944 21.9078 22
      vertex 156.43 22.8809 22
      vertex 157.645 21.508 22
    endloop
  endfacet
  facet normal 0 0 1
    outer loop
      vertex 158.464 24.2981 22
      vertex 156.631 24.2789 22
      vertex 156.7 23.8 22
    endloop
  endfacet
  facet normal 0 0 1
    outer loop
      vertex 155.706 25.3464 22
      vertex 156.892 26.7444 22
      vertex 156.454 26.9837 22
    endloop
  endfacet
  facet normal 0 0 1
    outer loop
      vertex 158.184 25.254 22
      vertex 156.43 24.7191 22
      vertex 156.631 24.2789 22
    endloop
  endfacet
  facet normal 0 0 1
    outer loop
      vertex 157.645 26.092 22
      vertex 156.113 25.0848 22
      vertex 156.43 24.7191 22
    endloop
  endfacet
  facet normal 0 0 1
    outer loop
      vertex 155.706 25.3464 22
      vertex 156.454 26.9837 22
      vertex 155.986 27.1582 22
    endloop
  endfacet
  facet normal 0 0 1
    outer loop
      vertex 156.892 26.7444 22
      vertex 155.706 25.3464 22
      vertex 156.113 25.0848 22
    endloop
  endfacet
  facet normal 0 0 1
    outer loop
      vertex 155.242 25.4827 22
      vertex 155.986 27.1582 22
      vertex 155.498 27.2644 22
    endloop
  endfacet
  facet normal 0 0 1
    outer loop
      vertex 155.986 27.1582 22
      vertex 155.242 25.4827 22
      vertex 155.706 25.3464 22
    endloop
  endfacet
  facet normal 0 0 1
    outer loop
      vertex 155 27.3 22
      vertex 155.242 25.4827 22
      vertex 155.498 27.2644 22
    endloop
  endfacet
  facet normal 0 0 1
    outer loop
      vertex 155 27.3 22
      vertex 154.758 25.4827 22
      vertex 155.242 25.4827 22
    endloop
  endfacet
  facet normal -0 0 1
    outer loop
      vertex 154.502 27.2644 22
      vertex 154.758 25.4827 22
      vertex 155 27.3 22
    endloop
  endfacet
  facet normal -0 0 1
    outer loop
      vertex 154.014 27.1582 22
      vertex 154.758 25.4827 22
      vertex 154.502 27.2644 22
    endloop
  endfacet
  facet normal 0 0 1
    outer loop
      vertex 154.758 25.4827 22
      vertex 154.014 27.1582 22
      vertex 154.294 25.3464 22
    endloop
  endfacet
  facet normal -0 0 1
    outer loop
      vertex 153.546 26.9837 22
      vertex 154.294 25.3464 22
      vertex 154.014 27.1582 22
    endloop
  endfacet
  facet normal -0 0 1
    outer loop
      vertex 153.108 26.7444 22
      vertex 154.294 25.3464 22
      vertex 153.546 26.9837 22
    endloop
  endfacet
  facet normal 0 0 1
    outer loop
      vertex 154.294 25.3464 22
      vertex 153.108 26.7444 22
      vertex 153.887 25.0848 22
    endloop
  endfacet
  facet normal -0 0 1
    outer loop
      vertex 152.708 26.4451 22
      vertex 153.887 25.0848 22
      vertex 153.108 26.7444 22
    endloop
  endfacet
  facet normal -0 0 1
    outer loop
      vertex 152.355 26.092 22
      vertex 153.887 25.0848 22
      vertex 152.708 26.4451 22
    endloop
  endfacet
  facet normal 0 0 1
    outer loop
      vertex 153.887 25.0848 22
      vertex 152.355 26.092 22
      vertex 153.57 24.7191 22
    endloop
  endfacet
  facet normal -0 0 1
    outer loop
      vertex 156.113 22.5152 22
      vertex 157.645 21.508 22
      vertex 156.43 22.8809 22
    endloop
  endfacet
  facet normal 0 0 1
    outer loop
      vertex 157.645 21.508 22
      vertex 156.113 22.5152 22
      vertex 157.292 21.1549 22
    endloop
  endfacet
  facet normal 0 0 1
    outer loop
      vertex 157.292 21.1549 22
      vertex 156.113 22.5152 22
      vertex 156.892 20.8556 22
    endloop
  endfacet
  facet normal -0 0 1
    outer loop
      vertex 155.706 22.2536 22
      vertex 156.892 20.8556 22
      vertex 156.113 22.5152 22
    endloop
  endfacet
  facet normal 0 0 1
    outer loop
      vertex 156.892 20.8556 22
      vertex 155.706 22.2536 22
      vertex 156.454 20.6163 22
    endloop
  endfacet
  facet normal 0 0 1
    outer loop
      vertex 156.454 20.6163 22
      vertex 155.706 22.2536 22
      vertex 155.986 20.4418 22
    endloop
  endfacet
  facet normal -0 0 1
    outer loop
      vertex 155.242 22.1173 22
      vertex 155.986 20.4418 22
      vertex 155.706 22.2536 22
    endloop
  endfacet
  facet normal 0 0 1
    outer loop
      vertex 155.986 20.4418 22
      vertex 155.242 22.1173 22
      vertex 155.498 20.3356 22
    endloop
  endfacet
  facet normal 0 0 1
    outer loop
      vertex 155.242 22.1173 22
      vertex 155 20.3 22
      vertex 155.498 20.3356 22
    endloop
  endfacet
  facet normal -0 0 1
    outer loop
      vertex 154.758 22.1173 22
      vertex 155 20.3 22
      vertex 155.242 22.1173 22
    endloop
  endfacet
  facet normal 0 0 1
    outer loop
      vertex 154.758 22.1173 22
      vertex 154.502 20.3356 22
      vertex 155 20.3 22
    endloop
  endfacet
  facet normal 0 0 1
    outer loop
      vertex 154.014 20.4418 22
      vertex 154.758 22.1173 22
      vertex 154.294 22.2536 22
    endloop
  endfacet
  facet normal 0 0 1
    outer loop
      vertex 154.758 22.1173 22
      vertex 154.014 20.4418 22
      vertex 154.502 20.3356 22
    endloop
  endfacet
  facet normal 0 0 1
    outer loop
      vertex 153.108 20.8556 22
      vertex 154.294 22.2536 22
      vertex 153.887 22.5152 22
    endloop
  endfacet
  facet normal 0 0 1
    outer loop
      vertex 152.355 21.508 22
      vertex 153.887 22.5152 22
      vertex 153.57 22.8809 22
    endloop
  endfacet
  facet normal 0 0 1
    outer loop
      vertex 154.294 22.2536 22
      vertex 153.546 20.6163 22
      vertex 154.014 20.4418 22
    endloop
  endfacet
  facet normal 0 0 1
    outer loop
      vertex 151.816 22.346 22
      vertex 153.57 22.8809 22
      vertex 153.369 23.3211 22
    endloop
  endfacet
  facet normal 0 0 1
    outer loop
      vertex 151.536 23.3019 22
      vertex 153.369 23.3211 22
      vertex 153.3 23.8 22
    endloop
  endfacet
  facet normal 0 0 1
    outer loop
      vertex 154.294 22.2536 22
      vertex 153.108 20.8556 22
      vertex 153.546 20.6163 22
    endloop
  endfacet
  facet normal -0 0 1
    outer loop
      vertex 152.056 25.6922 22
      vertex 153.57 24.7191 22
      vertex 152.355 26.092 22
    endloop
  endfacet
  facet normal -0 0 1
    outer loop
      vertex 151.816 25.254 22
      vertex 153.57 24.7191 22
      vertex 152.056 25.6922 22
    endloop
  endfacet
  facet normal 0 0 1
    outer loop
      vertex 153.887 22.5152 22
      vertex 152.708 21.1549 22
      vertex 153.108 20.8556 22
    endloop
  endfacet
  facet normal 0 0 1
    outer loop
      vertex 153.57 24.7191 22
      vertex 151.816 25.254 22
      vertex 153.369 24.2789 22
    endloop
  endfacet
  facet normal 0 0 1
    outer loop
      vertex 153.887 22.5152 22
      vertex 152.355 21.508 22
      vertex 152.708 21.1549 22
    endloop
  endfacet
  facet normal -0 0 1
    outer loop
      vertex 151.642 24.7861 22
      vertex 153.369 24.2789 22
      vertex 151.816 25.254 22
    endloop
  endfacet
  facet normal 0 0 1
    outer loop
      vertex 153.57 22.8809 22
      vertex 152.056 21.9078 22
      vertex 152.355 21.508 22
    endloop
  endfacet
  facet normal -0 0 1
    outer loop
      vertex 151.536 24.2981 22
      vertex 153.369 24.2789 22
      vertex 151.642 24.7861 22
    endloop
  endfacet
  facet normal 0 0 1
    outer loop
      vertex 153.57 22.8809 22
      vertex 151.816 22.346 22
      vertex 152.056 21.9078 22
    endloop
  endfacet
  facet normal 0 0 1
    outer loop
      vertex 153.369 24.2789 22
      vertex 151.536 24.2981 22
      vertex 153.3 23.8 22
    endloop
  endfacet
  facet normal 0 0 1
    outer loop
      vertex 153.369 23.3211 22
      vertex 151.642 22.8139 22
      vertex 151.816 22.346 22
    endloop
  endfacet
  facet normal 0 0 1
    outer loop
      vertex 151.5 23.8 22
      vertex 153.3 23.8 22
      vertex 151.536 24.2981 22
    endloop
  endfacet
  facet normal 0 0 1
    outer loop
      vertex 153.369 23.3211 22
      vertex 151.536 23.3019 22
      vertex 151.642 22.8139 22
    endloop
  endfacet
  facet normal 0 0 1
    outer loop
      vertex 153.3 23.8 22
      vertex 151.5 23.8 22
      vertex 151.536 23.3019 22
    endloop
  endfacet
  facet normal -0.937289 -0.348554 0
    outer loop
      vertex 158.358 24.7861 22
      vertex 158.184 25.254 25
      vertex 158.184 25.254 22
    endloop
  endfacet
  facet normal -0.937289 -0.348554 0
    outer loop
      vertex 158.184 25.254 25
      vertex 158.358 24.7861 22
      vertex 158.358 24.7861 25
    endloop
  endfacet
  facet normal -0.479456 -0.877566 0
    outer loop
      vertex 156.454 26.9837 22
      vertex 156.892 26.7444 25
      vertex 156.454 26.9837 25
    endloop
  endfacet
  facet normal -0.479456 -0.877566 -0
    outer loop
      vertex 156.892 26.7444 25
      vertex 156.454 26.9837 22
      vertex 156.892 26.7444 22
    endloop
  endfacet
  facet normal -0.212646 -0.977129 0
    outer loop
      vertex 155.498 27.2644 22
      vertex 155.986 27.1582 25
      vertex 155.498 27.2644 25
    endloop
  endfacet
  facet normal -0.212646 -0.977129 -0
    outer loop
      vertex 155.986 27.1582 25
      vertex 155.498 27.2644 22
      vertex 155.986 27.1582 22
    endloop
  endfacet
  facet normal 0.997398 -0.0720866 0
    outer loop
      vertex 151.5 23.8 25
      vertex 151.536 24.2981 22
      vertex 151.536 24.2981 25
    endloop
  endfacet
  facet normal 0.997398 -0.0720866 0
    outer loop
      vertex 151.536 24.2981 22
      vertex 151.5 23.8 25
      vertex 151.5 23.8 22
    endloop
  endfacet
  facet normal 0.937289 -0.348554 0
    outer loop
      vertex 151.642 24.7861 25
      vertex 151.816 25.254 22
      vertex 151.816 25.254 25
    endloop
  endfacet
  facet normal 0.937289 -0.348554 0
    outer loop
      vertex 151.816 25.254 22
      vertex 151.642 24.7861 25
      vertex 151.642 24.7861 22
    endloop
  endfacet
  facet normal 0.800816 -0.59891 0
    outer loop
      vertex 152.056 25.6922 25
      vertex 152.355 26.092 22
      vertex 152.355 26.092 25
    endloop
  endfacet
  facet normal 0.800816 -0.59891 0
    outer loop
      vertex 152.355 26.092 22
      vertex 152.056 25.6922 25
      vertex 152.056 25.6922 22
    endloop
  endfacet
  facet normal 0.479456 -0.877566 0
    outer loop
      vertex 153.108 26.7444 22
      vertex 153.546 26.9837 25
      vertex 153.108 26.7444 25
    endloop
  endfacet
  facet normal 0.479456 -0.877566 0
    outer loop
      vertex 153.546 26.9837 25
      vertex 153.108 26.7444 22
      vertex 153.546 26.9837 22
    endloop
  endfacet
  facet normal 0.599103 -0.800672 0
    outer loop
      vertex 152.708 26.4451 22
      vertex 153.108 26.7444 25
      vertex 152.708 26.4451 25
    endloop
  endfacet
  facet normal 0.599103 -0.800672 0
    outer loop
      vertex 153.108 26.7444 25
      vertex 152.708 26.4451 22
      vertex 153.108 26.7444 22
    endloop
  endfacet
  facet normal -0.977212 0.212263 0
    outer loop
      vertex 158.358 22.8139 22
      vertex 158.464 23.3019 25
      vertex 158.464 23.3019 22
    endloop
  endfacet
  facet normal -0.977212 0.212263 0
    outer loop
      vertex 158.464 23.3019 25
      vertex 158.358 22.8139 22
      vertex 158.358 22.8139 25
    endloop
  endfacet
  facet normal -0.071304 0.997455 0
    outer loop
      vertex 155.498 20.3356 22
      vertex 155 20.3 25
      vertex 155.498 20.3356 25
    endloop
  endfacet
  facet normal -0.071304 0.997455 0
    outer loop
      vertex 155 20.3 25
      vertex 155.498 20.3356 22
      vertex 155 20.3 22
    endloop
  endfacet
  facet normal -0.707207 0.707007 0
    outer loop
      vertex 157.645 21.508 22
      vertex 157.292 21.1549 25
      vertex 157.645 21.508 25
    endloop
  endfacet
  facet normal -0.707207 0.707007 0
    outer loop
      vertex 157.292 21.1549 25
      vertex 157.645 21.508 22
      vertex 157.292 21.1549 22
    endloop
  endfacet
  facet normal -0.479456 0.877566 0
    outer loop
      vertex 156.892 20.8556 22
      vertex 156.454 20.6163 25
      vertex 156.892 20.8556 25
    endloop
  endfacet
  facet normal -0.479456 0.877566 0
    outer loop
      vertex 156.454 20.6163 25
      vertex 156.892 20.8556 22
      vertex 156.454 20.6163 22
    endloop
  endfacet
  facet normal -0.937289 0.348554 0
    outer loop
      vertex 158.184 22.346 22
      vertex 158.358 22.8139 25
      vertex 158.358 22.8139 22
    endloop
  endfacet
  facet normal -0.937289 0.348554 0
    outer loop
      vertex 158.358 22.8139 25
      vertex 158.184 22.346 22
      vertex 158.184 22.346 25
    endloop
  endfacet
  facet normal 0.071304 0.997455 -0
    outer loop
      vertex 155 20.3 22
      vertex 154.502 20.3356 25
      vertex 155 20.3 25
    endloop
  endfacet
  facet normal 0.071304 0.997455 0
    outer loop
      vertex 154.502 20.3356 25
      vertex 155 20.3 22
      vertex 154.502 20.3356 22
    endloop
  endfacet
  facet normal 0.599103 0.800672 -0
    outer loop
      vertex 153.108 20.8556 22
      vertex 152.708 21.1549 25
      vertex 153.108 20.8556 25
    endloop
  endfacet
  facet normal 0.599103 0.800672 0
    outer loop
      vertex 152.708 21.1549 25
      vertex 153.108 20.8556 22
      vertex 152.708 21.1549 22
    endloop
  endfacet
  facet normal 0.977212 0.212263 0
    outer loop
      vertex 151.642 22.8139 25
      vertex 151.536 23.3019 22
      vertex 151.536 23.3019 25
    endloop
  endfacet
  facet normal 0.977212 0.212263 0
    outer loop
      vertex 151.536 23.3019 22
      vertex 151.642 22.8139 25
      vertex 151.642 22.8139 22
    endloop
  endfacet
  facet normal 0.877068 0.480366 0
    outer loop
      vertex 152.056 21.9078 25
      vertex 151.816 22.346 22
      vertex 151.816 22.346 25
    endloop
  endfacet
  facet normal 0.877068 0.480366 0
    outer loop
      vertex 151.816 22.346 22
      vertex 152.056 21.9078 25
      vertex 152.056 21.9078 22
    endloop
  endfacet
  facet normal 0.800816 0.59891 0
    outer loop
      vertex 152.355 21.508 25
      vertex 152.056 21.9078 22
      vertex 152.056 21.9078 25
    endloop
  endfacet
  facet normal 0.800816 0.59891 0
    outer loop
      vertex 152.056 21.9078 22
      vertex 152.355 21.508 25
      vertex 152.355 21.508 22
    endloop
  endfacet
  facet normal -0.997398 0.0720866 0
    outer loop
      vertex 158.464 23.3019 22
      vertex 158.5 23.8 25
      vertex 158.5 23.8 22
    endloop
  endfacet
  facet normal -0.997398 0.0720866 0
    outer loop
      vertex 158.5 23.8 25
      vertex 158.464 23.3019 22
      vertex 158.464 23.3019 25
    endloop
  endfacet
  facet normal -0.212646 0.977129 0
    outer loop
      vertex 155.986 20.4418 22
      vertex 155.498 20.3356 25
      vertex 155.986 20.4418 25
    endloop
  endfacet
  facet normal -0.212646 0.977129 0
    outer loop
      vertex 155.498 20.3356 25
      vertex 155.986 20.4418 22
      vertex 155.498 20.3356 22
    endloop
  endfacet
  facet normal -0.599103 0.800672 0
    outer loop
      vertex 157.292 21.1549 22
      vertex 156.892 20.8556 25
      vertex 157.292 21.1549 25
    endloop
  endfacet
  facet normal -0.599103 0.800672 0
    outer loop
      vertex 156.892 20.8556 25
      vertex 157.292 21.1549 22
      vertex 156.892 20.8556 22
    endloop
  endfacet
  facet normal -0.877068 0.480366 0
    outer loop
      vertex 157.944 21.9078 22
      vertex 158.184 22.346 25
      vertex 158.184 22.346 22
    endloop
  endfacet
  facet normal -0.877068 0.480366 0
    outer loop
      vertex 158.184 22.346 25
      vertex 157.944 21.9078 22
      vertex 157.944 21.9078 25
    endloop
  endfacet
  facet normal 0 0 1
    outer loop
      vertex 165 33.8 25
      vertex 158.5 23.8 25
      vertex 165 15.8 25
    endloop
  endfacet
  facet normal 0 0 1
    outer loop
      vertex 165 33.8 25
      vertex 158.464 24.2981 25
      vertex 158.5 23.8 25
    endloop
  endfacet
  facet normal 0 0 1
    outer loop
      vertex 165 33.8 25
      vertex 158.358 24.7861 25
      vertex 158.464 24.2981 25
    endloop
  endfacet
  facet normal 0 0 1
    outer loop
      vertex 165 33.8 25
      vertex 158.184 25.254 25
      vertex 158.358 24.7861 25
    endloop
  endfacet
  facet normal 0 0 1
    outer loop
      vertex 165 33.8 25
      vertex 157.944 25.6922 25
      vertex 158.184 25.254 25
    endloop
  endfacet
  facet normal 0 0 1
    outer loop
      vertex 165 33.8 25
      vertex 157.645 26.092 25
      vertex 157.944 25.6922 25
    endloop
  endfacet
  facet normal 0 0 1
    outer loop
      vertex 165 33.8 25
      vertex 157.292 26.4451 25
      vertex 157.645 26.092 25
    endloop
  endfacet
  facet normal 0 0 1
    outer loop
      vertex 165 33.8 25
      vertex 156.892 26.7444 25
      vertex 157.292 26.4451 25
    endloop
  endfacet
  facet normal 0 0 1
    outer loop
      vertex 165 33.8 25
      vertex 156.454 26.9837 25
      vertex 156.892 26.7444 25
    endloop
  endfacet
  facet normal 0 0 1
    outer loop
      vertex 165 33.8 25
      vertex 155.986 27.1582 25
      vertex 156.454 26.9837 25
    endloop
  endfacet
  facet normal 0 0 1
    outer loop
      vertex 165 33.8 25
      vertex 155.498 27.2644 25
      vertex 155.986 27.1582 25
    endloop
  endfacet
  facet normal 0 0 1
    outer loop
      vertex 165 33.8 25
      vertex 155 27.3 25
      vertex 155.498 27.2644 25
    endloop
  endfacet
  facet normal -0 0 1
    outer loop
      vertex 145 33.8 25
      vertex 155 27.3 25
      vertex 165 33.8 25
    endloop
  endfacet
  facet normal 0 0 1
    outer loop
      vertex 155 27.3 25
      vertex 145 33.8 25
      vertex 154.502 27.2644 25
    endloop
  endfacet
  facet normal 0 0 1
    outer loop
      vertex 154.502 27.2644 25
      vertex 145 33.8 25
      vertex 154.014 27.1582 25
    endloop
  endfacet
  facet normal 0 0 1
    outer loop
      vertex 154.014 27.1582 25
      vertex 145 33.8 25
      vertex 153.546 26.9837 25
    endloop
  endfacet
  facet normal 0 0 1
    outer loop
      vertex 151.536 24.2981 25
      vertex 145 33.8 25
      vertex 151.5 23.8 25
    endloop
  endfacet
  facet normal 0 0 1
    outer loop
      vertex 151.642 24.7861 25
      vertex 145 33.8 25
      vertex 151.536 24.2981 25
    endloop
  endfacet
  facet normal 0 0 1
    outer loop
      vertex 151.816 25.254 25
      vertex 145 33.8 25
      vertex 151.642 24.7861 25
    endloop
  endfacet
  facet normal 0 0 1
    outer loop
      vertex 152.056 25.6922 25
      vertex 145 33.8 25
      vertex 151.816 25.254 25
    endloop
  endfacet
  facet normal 0 0 1
    outer loop
      vertex 152.355 26.092 25
      vertex 145 33.8 25
      vertex 152.056 25.6922 25
    endloop
  endfacet
  facet normal 0 0 1
    outer loop
      vertex 152.708 26.4451 25
      vertex 145 33.8 25
      vertex 152.355 26.092 25
    endloop
  endfacet
  facet normal 0 0 1
    outer loop
      vertex 153.108 26.7444 25
      vertex 145 33.8 25
      vertex 152.708 26.4451 25
    endloop
  endfacet
  facet normal 0 0 1
    outer loop
      vertex 153.546 26.9837 25
      vertex 145 33.8 25
      vertex 153.108 26.7444 25
    endloop
  endfacet
  facet normal -0 0 1
    outer loop
      vertex 158.464 23.3019 25
      vertex 165 15.8 25
      vertex 158.5 23.8 25
    endloop
  endfacet
  facet normal -0 0 1
    outer loop
      vertex 158.358 22.8139 25
      vertex 165 15.8 25
      vertex 158.464 23.3019 25
    endloop
  endfacet
  facet normal -0 0 1
    outer loop
      vertex 158.184 22.346 25
      vertex 165 15.8 25
      vertex 158.358 22.8139 25
    endloop
  endfacet
  facet normal -0 0 1
    outer loop
      vertex 157.944 21.9078 25
      vertex 165 15.8 25
      vertex 158.184 22.346 25
    endloop
  endfacet
  facet normal -0 0 1
    outer loop
      vertex 157.645 21.508 25
      vertex 165 15.8 25
      vertex 157.944 21.9078 25
    endloop
  endfacet
  facet normal -0 0 1
    outer loop
      vertex 157.292 21.1549 25
      vertex 165 15.8 25
      vertex 157.645 21.508 25
    endloop
  endfacet
  facet normal -0 0 1
    outer loop
      vertex 156.892 20.8556 25
      vertex 165 15.8 25
      vertex 157.292 21.1549 25
    endloop
  endfacet
  facet normal -0 0 1
    outer loop
      vertex 156.454 20.6163 25
      vertex 165 15.8 25
      vertex 156.892 20.8556 25
    endloop
  endfacet
  facet normal -0 0 1
    outer loop
      vertex 155.986 20.4418 25
      vertex 165 15.8 25
      vertex 156.454 20.6163 25
    endloop
  endfacet
  facet normal -0 0 1
    outer loop
      vertex 155.498 20.3356 25
      vertex 165 15.8 25
      vertex 155.986 20.4418 25
    endloop
  endfacet
  facet normal -0 0 1
    outer loop
      vertex 155 20.3 25
      vertex 165 15.8 25
      vertex 155.498 20.3356 25
    endloop
  endfacet
  facet normal 0 0 1
    outer loop
      vertex 145 15.8 25
      vertex 155 20.3 25
      vertex 154.502 20.3356 25
    endloop
  endfacet
  facet normal 0 0 1
    outer loop
      vertex 145 15.8 25
      vertex 154.502 20.3356 25
      vertex 154.014 20.4418 25
    endloop
  endfacet
  facet normal 0 0 1
    outer loop
      vertex 145 15.8 25
      vertex 154.014 20.4418 25
      vertex 153.546 20.6163 25
    endloop
  endfacet
  facet normal 0 0 1
    outer loop
      vertex 145 15.8 25
      vertex 151.5 23.8 25
      vertex 145 33.8 25
    endloop
  endfacet
  facet normal 0 0 1
    outer loop
      vertex 151.5 23.8 25
      vertex 145 15.8 25
      vertex 151.536 23.3019 25
    endloop
  endfacet
  facet normal 0 0 1
    outer loop
      vertex 151.536 23.3019 25
      vertex 145 15.8 25
      vertex 151.642 22.8139 25
    endloop
  endfacet
  facet normal 0 0 1
    outer loop
      vertex 151.642 22.8139 25
      vertex 145 15.8 25
      vertex 151.816 22.346 25
    endloop
  endfacet
  facet normal 0 0 1
    outer loop
      vertex 155 20.3 25
      vertex 145 15.8 25
      vertex 165 15.8 25
    endloop
  endfacet
  facet normal 0 0 1
    outer loop
      vertex 153.108 20.8556 25
      vertex 145 15.8 25
      vertex 153.546 20.6163 25
    endloop
  endfacet
  facet normal 0 0 1
    outer loop
      vertex 152.708 21.1549 25
      vertex 145 15.8 25
      vertex 153.108 20.8556 25
    endloop
  endfacet
  facet normal 0 0 1
    outer loop
      vertex 152.355 21.508 25
      vertex 145 15.8 25
      vertex 152.708 21.1549 25
    endloop
  endfacet
  facet normal 0 0 1
    outer loop
      vertex 152.056 21.9078 25
      vertex 145 15.8 25
      vertex 152.355 21.508 25
    endloop
  endfacet
  facet normal 0 0 1
    outer loop
      vertex 151.816 22.346 25
      vertex 145 15.8 25
      vertex 152.056 21.9078 25
    endloop
  endfacet
  facet normal 1 -0 0
    outer loop
      vertex 165 15.8 25
      vertex 165 33.8 20
      vertex 165 33.8 25
    endloop
  endfacet
  facet normal 1 0 0
    outer loop
      vertex 165 33.8 20
      vertex 165 15.8 25
      vertex 165 15.8 20
    endloop
  endfacet
  facet normal 0 1 -0
    outer loop
      vertex 165 33.8 20
      vertex 145 33.8 25
      vertex 165 33.8 25
    endloop
  endfacet
  facet normal 0 1 0
    outer loop
      vertex 145 33.8 25
      vertex 165 33.8 20
      vertex 145 33.8 20
    endloop
  endfacet
endsolid OpenSCAD_Model
